<svg xmlns="http://www.w3.org/2000/svg" viewBox="0 0 64 64"><path fill-rule="evenodd" d="M59.89 36.97l-.88 5.34v0c-.16.96-1 1.67-1.98 1.67h-5.15v0c-.37-.01-.71-.21-.88-.53v0c-1.25-2.15-3.55-3.47-6.03-3.47h-4v0c-.56-.01-1-.45-1-1 0-.01 0-.01 0-.01v-16 -.001c-.01-.56.44-1 .99-1 0-.01 0-.01 0-.01h15.05l0-.001c.97 0 1.81.7 1.97 1.67l1.87 11.35v0c.1.64.1 1.3 0 1.94Zm-5.47-10.56h0c-.04-.25-.25-.42-.5-.42h-9.45v0c-.28 0-.5.22-.5.5v5 0c-.01.27.22.49.49.5h4.18l-.001-.001c.92 0 1.71.66 1.86 1.58h-.001c.03.24.24.41.49.41h4.05v0c.27-.01.49-.23.49-.51 -.01-.03-.01-.06-.01-.09ZM36 45.99h-9.67v0c-.24-.01-.45-.18-.49-.41h0c-.23-1.1-.71-2.13-1.41-3v0c-.13-.16-.11-.4.05-.52 .06-.06.14-.09.23-.09h12.27v0c.55-.01 1 .44 1 .99 0 0 0 0 0 0v1 0c0 1.1-.9 2-2 2 -.01 0-.01-.01-.01-.01Zm1-6H8.988v0c-.56 0-1-.45-1-1v-23 0c-.01-1.11.89-2.01 1.99-2.01 0-.001 0 0 0 0h26.01v0c1.1-.01 2 .89 2 1.99 0 0 0 0 0 0v23h0c0 .55-.45 1-1 1 -.01 0-.01-.01-.01-.01Zm-28.012 2h4.27v0c.2-.01.37.16.37.36 0 .08-.03.16-.09.23h-.001c-.71.86-1.19 1.89-1.41 2.99h0c-.05.23-.25.4-.484.4H9.97v0c-1.11 0-2.01-.9-2.01-2 -.01-.01-.01-.01-.01-.01v-1h0c0-.56.44-1 1-1Zm9.99 0v0c2.76-.01 5 2.23 5 4.99 0 2.76-2.24 5-5 5 -2.77 0-5.01-2.24-5.01-5 -.01-.01-.01-.01-.01-.01h0c-.01-2.77 2.23-5 4.99-5 0-.001 0-.001 0-.001Zm26.01 0h0c2.76-.01 5 2.23 5 4.99 0 2.76-2.24 5-5 5 -2.77 0-5.01-2.24-5.01-5 -.01-.01-.01-.01-.01-.01h0c-.01-2.77 2.23-5 4.99-5 0-.01 0-.01 0-.01Z" fill="#337ea9" /></svg>